<svg width="18" height="18" viewBox="0 0 18 18" fill="none" xmlns="http://www.w3.org/2000/svg">
<path d="M10.6744 16.7442H7.32556V18H10.6744V16.7442ZM1.25581 10.6744V7.3256H1.05972e-06V10.6744H1.25581ZM16.7441 10.3086V10.6744H17.9999V10.3086H16.7441ZM11.4203 2.8139L14.7348 5.79687L15.5746 4.86254L12.2609 1.87958L11.4203 2.8139ZM17.9999 10.3086C17.9999 8.89453 18.0125 7.99872 17.6567 7.19835L16.5089 7.70988C16.7316 8.21053 16.7441 8.78402 16.7441 10.3086H17.9999ZM14.7348 5.79687C15.8676 6.81658 16.2862 7.21007 16.5089 7.70988L17.6567 7.19835C17.3 6.39714 16.6261 5.80859 15.5746 4.86254L14.7348 5.79687ZM7.35068 1.25586C8.67514 1.25586 9.17495 1.2659 9.61951 1.43669L10.0699 0.264604C9.35662 -0.00999979 8.57969 4.67039e-05 7.35068 4.67039e-05V1.25586ZM12.2609 1.88041C11.3517 1.06246 10.7832 0.537533 10.0699 0.264604L9.62034 1.43669C10.0657 1.60748 10.4408 1.93232 11.4203 2.8139L12.2609 1.88041ZM7.32556 16.7442C5.72901 16.7442 4.59543 16.7425 3.73394 16.627C2.89255 16.5139 2.40697 16.3013 2.05283 15.9472L1.16539 16.8346C1.79162 17.4625 2.58613 17.7396 3.56734 17.8719C4.53013 18.0017 5.76501 18 7.32556 18V16.7442ZM1.05972e-06 10.6744C1.05972e-06 12.235 -0.00167336 13.469 0.128094 14.4327C0.260372 15.4139 0.538325 16.2084 1.16456 16.8354L2.05199 15.948C1.69869 15.593 1.48604 15.1074 1.37302 14.2652C1.25749 13.4054 1.25581 12.271 1.25581 10.6744H1.05972e-06ZM10.6744 18C12.2349 18 13.469 18.0017 14.4326 17.8719C15.4138 17.7396 16.2083 17.4617 16.8354 16.8354L15.948 15.948C15.593 16.3013 15.1074 16.5139 14.2652 16.627C13.4054 16.7425 12.2709 16.7442 10.6744 16.7442V18ZM16.7441 10.6744C16.7441 12.271 16.7425 13.4054 16.6269 14.266C16.5139 15.1074 16.3013 15.593 15.9471 15.9472L16.8346 16.8346C17.4625 16.2084 17.7396 15.4139 17.8719 14.4327C18.0016 13.4699 17.9999 12.235 17.9999 10.6744H16.7441ZM1.25581 7.3256C1.25581 5.72905 1.25749 4.59547 1.37302 3.73399C1.48604 2.8926 1.69869 2.40702 2.05283 2.05288L1.16539 1.16544C0.537488 1.79167 0.260372 2.58618 0.128094 3.56738C-0.00167336 4.53017 1.05972e-06 5.76505 1.05972e-06 7.3256H1.25581ZM7.35068 4.67039e-05C5.78091 4.67039e-05 4.54101 -0.00162771 3.57404 0.128139C2.58864 0.260418 1.79162 0.538371 1.16456 1.1646L2.05199 2.05204C2.40697 1.69874 2.89339 1.48609 3.74064 1.37307C4.60548 1.25753 5.74575 1.25586 7.35068 1.25586V4.67039e-05Z" fill="black"/>
<path d="M9.83716 1.04639V3.1394C9.83716 5.1127 9.83716 6.09977 10.45 6.7126C11.0628 7.32544 12.0499 7.32544 14.0232 7.32544H17.372" stroke="black" stroke-width="1.5"/>
</svg>
