<svg width="17" height="20" viewBox="0 0 17 20" fill="none" xmlns="http://www.w3.org/2000/svg">
<path d="M8.2 10.9C9.69117 10.9 10.9 9.69117 10.9 8.2C10.9 6.70883 9.69117 5.5 8.2 5.5C6.70883 5.5 5.5 6.70883 5.5 8.2C5.5 9.69117 6.70883 10.9 8.2 10.9Z" stroke="black" stroke-width="1.5" stroke-linecap="round" stroke-linejoin="round"/>
<path d="M8.2 1C6.29044 1 4.45909 1.75857 3.10883 3.10883C1.75857 4.45909 1 6.29044 1 8.2C1 9.9028 1.3618 11.017 2.35 12.25L8.2 19L14.05 12.25C15.0382 11.017 15.4 9.9028 15.4 8.2C15.4 6.29044 14.6414 4.45909 13.2912 3.10883C11.9409 1.75857 10.1096 1 8.2 1Z" stroke="black" stroke-width="1.5" stroke-linecap="round" stroke-linejoin="round"/>
</svg>
