
<svg width="24" height="23" viewBox="0 0 24 23" fill="none" xmlns="http://www.w3.org/2000/svg">
<path d="M10.9462 11.5153L5.77879 11.4922M22.3611 10.9797C22.4713 11.0337 22.5643 11.1174 22.6295 11.2214C22.6948 11.3254 22.7296 11.4454 22.7301 11.5676C22.7305 11.6899 22.6966 11.8095 22.6321 11.9128C22.5676 12.0161 22.4752 12.0989 22.3655 12.1518L2.72491 21.5429C2.60748 21.599 2.47557 21.6184 2.34632 21.5985C2.21706 21.5786 2.09641 21.5204 2.00003 21.4314C1.90364 21.3424 1.83596 21.2267 1.80577 21.0994C1.77559 20.9721 1.78428 20.8389 1.83073 20.7173L5.25534 11.7233C5.31231 11.5733 5.31157 11.407 5.25326 11.2565L1.74917 2.23073C1.70205 2.10881 1.69245 1.97588 1.72161 1.84912C1.75076 1.72236 1.81734 1.6076 1.91274 1.51966C2.00813 1.43171 2.12796 1.37463 2.25674 1.35579C2.38553 1.33694 2.51735 1.3572 2.63518 1.41394L22.3611 10.9797Z" stroke="#ACACAC" stroke-width="1.5" stroke-linecap="round" stroke-linejoin="round"/>
</svg>